<svg xmlns="http://www.w3.org/2000/svg" data-name="Layer 1" viewBox="0 0 283.46 283.46"><circle cx="141.73" cy="141.73" r="141.73" style="fill:#00294d"/><path d="M141.73 224.04c-3.8 0-7.59-.85-11.13-2.54-62.5-29.93-66.01-98.37-66.08-111.79-.04-10.47 6.25-19.9 16.01-24.04l54.07-22.93c4.45-2 9.85-2 14.35.04l53.98 22.9c9.76 4.13 16.04 13.56 16.01 24.02-.07 13.43-3.57 81.87-66.08 111.8-3.54 1.7-7.33 2.54-11.13 2.54Zm0-146.44a.95.95 0 0 0-.39.08l-.24.11-54.18 22.98c-3.68 1.55-6.04 5.04-6.02 8.88.06 11.69 3.07 71.38 56.77 97.09a9.305 9.305 0 0 0 8.11 0c53.7-25.71 56.72-85.4 56.78-97.1.01-3.83-2.35-7.32-6.01-8.86L142.39 77.8c-.32-.15-.5-.18-.65-.18Z" style="fill:#00d1a7"/><path d="M132.89 128.14v-17.36c0-1.25 1.01-2.26 2.26-2.26h12.94c1.25 0 2.26 1.01 2.26 2.26v17.36c0 1.25 1.01 2.26 2.26 2.26h18.25c1.25 0 2.26 1.01 2.26 2.26v12.06c0 1.25-1.01 2.26-2.26 2.26h-18.03c-1.25 0-2.26 1.01-2.26 2.26v17.37c0 1.25-1.01 2.26-2.26 2.26h-12.94c-1.25 0-2.26-1.01-2.26-2.26v-17.37c0-1.25-1.01-2.26-2.26-2.26H112.6c-1.25 0-2.26-1.01-2.26-2.26v-12.06c0-1.25 1.01-2.26 2.26-2.26h18.03c1.25 0 2.26-1.01 2.26-2.26Z" style="fill:#fff"/></svg>
